<?xml version="1.0" encoding="UTF-8"?>
<!--Generator: Apple Native CoreSVG 360-->
<!DOCTYPE svg
PUBLIC "-//W3C//DTD SVG 1.1//EN"
       "http://www.w3.org/Graphics/SVG/1.1/DTD/svg11.dtd">
<svg version="1.1" xmlns="http://www.w3.org/2000/svg" xmlns:xlink="http://www.w3.org/1999/xlink" viewBox="0 0 16.4249 20.9372">
 <g>
  <rect height="20.9372" opacity="0" width="16.4249" x="0" y="0"/>
  <path d="M16.4249 3.06359L16.4249 17.8696C16.4249 19.916 15.4099 20.9332 13.3924 20.9332L3.02218 20.9332C1.00683 20.9332 0 19.916 0 17.8696L0 3.06359C0 1.02753 1.00683 0 3.02218 0L13.3924 0C15.4099 0 16.4249 1.02753 16.4249 3.06359ZM3.60263 14.733C3.20408 14.733 2.97154 14.9884 2.97154 15.4015L2.97154 17.0292C2.97154 17.4381 3.20408 17.6955 3.60263 17.6955L8.01078 17.6955C8.39687 17.6955 8.63976 17.4381 8.63976 17.0292L8.63976 15.4015C8.63976 14.9884 8.39687 14.733 8.01078 14.733ZM3.60263 10.9088C3.20408 10.9088 2.97154 11.1538 2.97154 11.5524L2.97154 13.2029C2.97154 13.6139 3.20408 13.861 3.60263 13.861L11.2267 13.861C11.621 13.861 11.8536 13.6139 11.8536 13.2029L11.8536 11.5524C11.8536 11.1538 11.621 10.9088 11.2267 10.9088ZM3.60263 7.07008C3.20408 7.07008 2.97154 7.32543 2.97154 7.72609L2.97154 9.3662C2.97154 9.76475 3.20408 10.0222 3.60263 10.0222L12.843 10.0222C13.2312 10.0222 13.4637 9.76475 13.4637 9.36409L13.4637 7.72609C13.4637 7.32543 13.2312 7.07008 12.843 7.07008ZM3.60263 3.23342C3.20408 3.23342 2.97154 3.48877 2.97154 3.90189L2.97154 5.52954C2.97154 5.93844 3.20408 6.1959 3.60263 6.1959L9.58759 6.1959C9.97368 6.1959 10.2166 5.93844 10.2166 5.52954L10.2166 3.90189C10.2166 3.48877 9.97368 3.23342 9.58759 3.23342Z" fill="#575757" fill-opacity="1"/>
 </g>
</svg>
