<svg xmlns="http://www.w3.org/2000/svg" viewBox="0 0 102 88" width="102" height="88">
  <g transform="translate(2.5 0.5)">

  <defs>
    <linearGradient id="darkRim" x1="22%" y1="8%" x2="78%" y2="92%">
      <stop offset="0" stop-color="#414141"/>
      <stop offset=".45" stop-color="#3d3d3d"/>
      <stop offset="1" stop-color="#343434"/>
    </linearGradient>
  </defs>
  <circle cx="48.5" cy="43.5" r="36.5" fill="#1b1b1b"/>
  <circle cx="48.5" cy="43.5" r="35.7" fill="none" stroke="url(#darkRim)" stroke-width="1.35"/>
  <circle cx="48.5" cy="43.5" r="36.15" fill="none" stroke="#111111" stroke-opacity=".22" stroke-width=".55"/>
  <g transform="translate(36.396339 25.650000) scale(1.816507)">
<ns0:g xmlns:ns0="http://www.w3.org/2000/svg">
  <ns0:rect height="19.6531" opacity="0" width="13.3263" x="0" y="0" />
  <ns0:path d="M2.19192 19.138L11.1322 19.138C12.5662 19.138 13.3263 18.3612 13.3263 16.8153L13.3263 10.0965C13.3263 8.55886 12.5662 7.78206 11.1322 7.78206L2.19192 7.78206C0.760117 7.78206 3.10862e-15 8.55886 3.10862e-15 10.0965L3.10862e-15 16.8153C3.10862e-15 18.3612 0.760117 19.138 2.19192 19.138ZM1.71579 8.53214L3.25965 8.53214L3.25965 5.23932C3.25965 2.77126 4.83837 1.46719 6.65796 1.46719C8.48368 1.46719 10.0749 2.77126 10.0749 5.23932L10.0749 8.53214L11.6187 8.53214L11.6187 5.44001C11.6187 1.77045 9.21747 0 6.65796 0C4.10669 0 1.71579 1.77045 1.71579 5.44001Z" fill="#f8f8f8" fill-opacity="1" />
 </ns0:g>

  </g>

  </g>
</svg>