<?xml version="1.0" encoding="UTF-8"?>
<!--Generator: Apple Native CoreSVG 360-->
<!DOCTYPE svg
PUBLIC "-//W3C//DTD SVG 1.1//EN"
       "http://www.w3.org/Graphics/SVG/1.1/DTD/svg11.dtd">
<svg version="1.1" xmlns="http://www.w3.org/2000/svg" xmlns:xlink="http://www.w3.org/1999/xlink" viewBox="0 0 16.961 18.285">
 <g>
  <rect height="18.285" opacity="0" width="16.961" x="0" y="0"/>
  <path d="M0.265299 16.7435C0.101597 16.9093 0 17.1351 0 17.3837C0 17.8913 0.389508 18.2726 0.899205 18.2726C1.14571 18.2726 1.36539 18.1773 1.52698 18.0136L9.00294 10.3798L7.95803 10.3798L15.4319 18.0136C15.5956 18.1773 15.8338 18.2726 16.0721 18.2726C16.5797 18.2726 16.961 17.8913 16.961 17.3837C16.961 17.1351 16.8615 16.9218 16.6978 16.7456L9.14172 9.01097C8.97169 8.83058 8.73131 8.72477 8.4846 8.72477C8.22754 8.72477 8.00787 8.82847 7.8296 9.00886Z" fill="white" fill-opacity="0.85"/>
  <path d="M0.265299 8.01871C0.101597 8.18453 0 8.41033 0 8.65895C0 9.16654 0.389508 9.5478 0.899205 9.5478C1.14571 9.5478 1.36539 9.45254 1.52698 9.28883L9.00294 1.65501L7.95803 1.65501L15.4319 9.28883C15.5956 9.45254 15.8338 9.5478 16.0721 9.5478C16.5797 9.5478 16.961 9.16654 16.961 8.65895C16.961 8.41033 16.8615 8.18664 16.6978 8.02082L9.14172 0.286201C8.96134 0.116169 8.73131 0 8.4846 0C8.22754 0 8.00787 0.103708 7.8296 0.284091Z" fill="white" fill-opacity="0.85"/>
 </g>
</svg>
