<?xml version="1.0" encoding="UTF-8"?>

<!DOCTYPE svg
PUBLIC "-//W3C//DTD SVG 1.1//EN"
       "http://www.w3.org/Graphics/SVG/1.1/DTD/svg11.dtd">
<svg version="1.1" xmlns="http://www.w3.org/2000/svg" xmlns:xlink="http://www.w3.org/1999/xlink" viewBox="0 0 21.2044 18.1713">
  <style type="text/css"><![CDATA[
  @media (prefers-color-scheme: dark) {
    svg { filter: invert(1); }
  }
  ]]></style>
 <g>
  <rect height="18.1713" opacity="0" width="21.2044" x="0" y="0"/>
  <path d="M19.8618 16.0653C19.8618 16.5004 19.5034 16.861 19.0786 16.861L4.98108 16.861L6.56965 15.2799L19.0786 15.2799C19.5034 15.2799 19.8618 15.6405 19.8618 16.0653Z" fill="#131313" fill-opacity="1"/>
  <path d="M4.00698 15.9573L14.6691 5.31584L12.9582 3.60285L2.29399 14.2401L1.36746 16.4132C1.272 16.6413 1.52503 16.9108 1.76139 16.8278ZM15.5199 4.47965L16.5115 3.5087C17.0096 3.00453 17.0406 2.47142 16.5924 2.02323L16.2549 1.69813C15.813 1.24381 15.2757 1.29154 14.7861 1.78325L13.7944 2.75209Z" fill="#131313" fill-opacity="1"/>
 </g>
</svg>
